<svg xmlns="http://www.w3.org/2000/svg" width="104" height="105" viewBox="0 0 104 105">
  <g id="Grupo_1215" data-name="Grupo 1215" transform="translate(-1335 -4178)">
    <g id="Elipse_8" data-name="Elipse 8" transform="translate(1335 4178)" fill="#fff" stroke="#f1f1f4" stroke-width="3">
      <ellipse cx="52" cy="52.5" rx="52" ry="52.5" stroke="none"/>
      <ellipse cx="52" cy="52.5" rx="50.5" ry="51" fill="none"/>
    </g>
    <g id="Grupo_1210" data-name="Grupo 1210" transform="translate(724.919 4208.564)">
      <path id="Caminho_253" data-name="Caminho 253" d="M679.05,13.325c-.918,0-1.775.01-2.633,0a4.875,4.875,0,0,1-4.64-2.974c-2.006-4.1-5.315-6.362-9.891-6.388-4.6-.026-7.942,2.218-10,6.324a4.582,4.582,0,0,1-2.184,2.422,9.3,9.3,0,0,1-2.482.6,24.339,24.339,0,0,1-2.7.022V15.21q0,9.029,0,18.057c0,1.509-.531,2.036-2.048,2.038-.863,0-1.726.014-2.589,0a4.636,4.636,0,0,1-4.755-4.667q-.08-3.132,0-6.268a4.633,4.633,0,0,1,4.543-4.674c.539-.035,1.083-.005,1.714-.005,0-.383,0-.691,0-1a37.8,37.8,0,0,1,.387-7.74A19.988,19.988,0,0,1,653.107-3.492a19.223,19.223,0,0,1,16.688-.325c7.858,3.507,12.032,9.718,12.454,18.358.08,1.632.022,3.27.031,4.905a1.271,1.271,0,0,0,.086.242c.515,0,1.077-.032,1.634.005a4.619,4.619,0,0,1,4.517,4.626q.09,3.166,0,6.336a4.62,4.62,0,0,1-4.7,4.646c-.494.014-.988,0-1.5,0-.053,1-.031,1.933-.165,2.843a7.823,7.823,0,0,1-7.576,6.652c-2.566.045-5.133.022-7.7.011a.78.78,0,0,0-.87.517,4.653,4.653,0,1,1,.072-4.051.806.806,0,0,0,.583.383c2.566.025,5.134.058,7.7,0a4.7,4.7,0,0,0,4.755-4.773c.024-7.382.008-14.764,0-22.146C679.12,14.293,679.077,13.844,679.05,13.325Zm-.644-3.152A17.168,17.168,0,0,0,660.777-2.3c-8.914.525-14.467,7.424-15.5,12.489.71,0,1.413.016,2.114,0a1.613,1.613,0,0,0,1.488-.909c.238-.464.463-.935.718-1.389a14.077,14.077,0,0,1,25,1.075,1.727,1.727,0,0,0,1.435,1.2C676.817,10.215,677.608,10.173,678.407,10.173Zm3.877,22c.552,0,1.046.015,1.539,0a1.492,1.492,0,0,0,1.561-1.535c.027-2.084.021-4.169,0-6.253a1.447,1.447,0,0,0-1.207-1.512,15.71,15.71,0,0,0-1.9-.016Zm-40.947-9.358c-.557,0-1.079-.028-1.6.006A1.478,1.478,0,0,0,638.26,24.3q-.047,3.2,0,6.4a1.412,1.412,0,0,0,1.227,1.425c.6.061,1.21.013,1.849.013Zm22.03,20.413a1.547,1.547,0,1,0-3.094.051,1.547,1.547,0,1,0,3.094-.051Z" transform="translate(0 0)" fill="#3e8ddd"/>
      <path id="Caminho_254" data-name="Caminho 254" d="M754.592,169.228c1.388,0,2.658-.021,3.927.012a2.726,2.726,0,0,1,1.166.272,1.527,1.527,0,0,1-.694,2.828c-2.18.023-4.36.031-6.54,0a1.428,1.428,0,0,1-1.393-1.61,6.5,6.5,0,0,1,3.913-5.979,3.677,3.677,0,0,0,2.291-2.908,1.594,1.594,0,0,0-1.324-1.955c-.951-.112-1.61.464-1.762,1.543a1.583,1.583,0,0,1-1.384,1.53,1.433,1.433,0,0,1-1.619-.956,3.862,3.862,0,0,1,.013-1.674,4.676,4.676,0,0,1,9.214,1.43,6.519,6.519,0,0,1-3.83,5.689A3.878,3.878,0,0,0,754.592,169.228Z" transform="translate(-100.17 -140.182)" fill="#3e8ddd"/>
      <path id="Caminho_255" data-name="Caminho 255" d="M845.8,162.94h3.122c0-1.164,0-2.291,0-3.418a11.985,11.985,0,0,1,.037-1.428,1.528,1.528,0,0,1,1.6-1.354,1.475,1.475,0,0,1,1.473,1.482q.027,6.334,0,12.668a1.453,1.453,0,0,1-1.484,1.465,1.5,1.5,0,0,1-1.607-1.492c-.049-1.315-.019-2.633-.023-3.95,0-.243,0-.485,0-.8h-3.749c-.3,0-.591,0-.885-.011a1.52,1.52,0,0,1-1.6-1.579q-.043-3.1,0-6.2a1.557,1.557,0,1,1,3.11.064c.019,1.248.006,2.5.006,3.746C845.8,162.383,845.8,162.629,845.8,162.94Z" transform="translate(-179.295 -140.185)" fill="#3e8ddd"/>
    </g>
  </g>
</svg>
