<svg xmlns="http://www.w3.org/2000/svg" width="105" height="105" viewBox="0 0 105 105">
  <g id="Grupo_1213" data-name="Grupo 1213" transform="translate(-815 -4178)">
    <g id="Elipse_6" data-name="Elipse 6" transform="translate(815 4178)" fill="#fff" stroke="#f1f1f4" stroke-width="3">
      <circle cx="52.5" cy="52.5" r="52.5" stroke="none"/>
      <circle cx="52.5" cy="52.5" r="51" fill="none"/>
    </g>
    <g id="Grupo_1211" data-name="Grupo 1211" transform="translate(805.003 4205)">
      <path id="Caminho_256" data-name="Caminho 256" d="M138.628,88.083a1.676,1.676,0,0,0-2.37,0l-3.135,3.135a15.139,15.139,0,0,1-5.924-5.924l3.135-3.135a1.676,1.676,0,0,0,0-2.37l-6.516-6.516a1.676,1.676,0,0,0-2.369,0l-3.554,3.554c-1.763,1.762-1.978,4.7-.607,8.26,3.95,10.27,18.753,20.985,24.3,15.435l3.554-3.554a1.676,1.676,0,0,0,0-2.37Zm.592,10.071c-.736.736-2.532.678-4.688-.151-5.57-2.142-11.969-8.531-14.117-14.117-.829-2.156-.887-3.952-.151-4.688l2.37-2.369,4.147,4.147-2.369,2.37c-.632.632-1.128,1.847.1,4.051,1.8,3.233,7.934,9.244,10.566,6.612l2.369-2.369,4.147,4.147Z" transform="translate(-68.398 -65.161)" fill="#3e8ddd"/>
      <path id="Caminho_257" data-name="Caminho 257" d="M76.021,0H49.212A9.226,9.226,0,0,0,40,9.215V36.024a9.226,9.226,0,0,0,9.215,9.215h7.429L61.18,52.8a1.676,1.676,0,0,0,2.873,0l4.539-7.564h7.429a9.226,9.226,0,0,0,9.215-9.215V9.215A9.226,9.226,0,0,0,76.021,0Zm5.864,36.024a5.871,5.871,0,0,1-5.864,5.864H67.643a1.676,1.676,0,0,0-1.437.814l-3.59,5.983L59.027,42.7a1.676,1.676,0,0,0-1.437-.814H49.212a5.871,5.871,0,0,1-5.864-5.864V9.215a5.871,5.871,0,0,1,5.864-5.864H76.021a5.871,5.871,0,0,1,5.864,5.864Z" fill="#3e8ddd"/>
    </g>
  </g>
</svg>
