<svg xmlns="http://www.w3.org/2000/svg" width="104" height="105" viewBox="0 0 104 105">
  <g id="Grupo_1214" data-name="Grupo 1214" transform="translate(-1072 -4178)">
    <g id="Elipse_7" data-name="Elipse 7" transform="translate(1072 4178)" fill="#fff" stroke="#f1f1f4" stroke-width="3">
      <ellipse cx="52" cy="52.5" rx="52" ry="52.5" stroke="none"/>
      <ellipse cx="52" cy="52.5" rx="50.5" ry="51" fill="none"/>
    </g>
    <g id="Grupo_1212" data-name="Grupo 1212" transform="translate(1100 4207)">
      <path id="Caminho_258" data-name="Caminho 258" d="M40.389,6.93A23.659,23.659,0,0,0,6.93,40.389,23.659,23.659,0,0,0,40.389,6.93Zm2.392,8.3H38.707a4.982,4.982,0,0,0-4.671-3.585,23.07,23.07,0,0,0-5.218-8.232A20.986,20.986,0,0,1,42.781,15.229Zm1.765,8.43a20.986,20.986,0,0,1-.772,5.658H35.731a35.919,35.919,0,0,0,.36-8.221A5,5,0,0,0,38.707,18h5.067a20.986,20.986,0,0,1,.772,5.658ZM7.256,29.317H3.544A21.122,21.122,0,0,1,3.544,18h8.046a35.88,35.88,0,0,0-.429,6.958,6.217,6.217,0,0,0-3.905,4.357Zm26.675-10.5a2.2,2.2,0,1,1,2.2-2.2A2.2,2.2,0,0,1,33.931,18.817Zm-4.776-3.588h-4.11V3.841a19.081,19.081,0,0,1,6.3,8.529,4.994,4.994,0,0,0-2.187,2.859ZM22.273,3.845V15.229H15.02a26.755,26.755,0,0,1,1.112-3.241,18.813,18.813,0,0,1,6.141-8.143Zm0,14.157V29.317H19.288a6.207,6.207,0,0,0-5.364-4.693A32.982,32.982,0,0,1,14.4,18Zm-9,9.36a3.42,3.42,0,1,1-3.42,3.42A3.424,3.424,0,0,1,13.272,27.362Zm6.053,4.728h2.948v11.4a17.65,17.65,0,0,1-5.82-7.4A6.212,6.212,0,0,0,19.325,32.089Zm5.721,11.386V32.089H32.3a27.166,27.166,0,0,1-.9,2.727,19.034,19.034,0,0,1-6.35,8.659Zm0-14.159V18h4.11a4.985,4.985,0,0,0,4.187,3.552,33.016,33.016,0,0,1-.422,7.763H25.045ZM8.89,8.89a20.757,20.757,0,0,1,9.623-5.482,22.85,22.85,0,0,0-4.939,7.51,29.9,29.9,0,0,0-1.418,4.311H4.537A20.877,20.877,0,0,1,8.89,8.89Zm-4.353,23.2H7.219a6.2,6.2,0,0,0,6.052,4.885c.178,0,.354-.009.529-.024a21.647,21.647,0,0,0,4.642,6.941,20.985,20.985,0,0,1-13.905-11.8Zm33.891,6.339a20.757,20.757,0,0,1-9.62,5.481,23.1,23.1,0,0,0,5.167-8.08,30.256,30.256,0,0,0,1.189-3.74h7.616a20.877,20.877,0,0,1-4.353,6.339Z" fill="#3f8ddd"/>
    </g>
  </g>
</svg>
