<svg xmlns="http://www.w3.org/2000/svg" width="219" height="35.8" viewBox="0 0 219 35.8"><defs><style>.a{fill:#fff;}</style></defs><path class="a" d="M43.1,16a2.562,2.562,0,0,0-2.6,2.5v.2a2.606,2.606,0,0,0,2.6,2.7h0a2.582,2.582,0,0,0,2.6-2.6v-.2A2.715,2.715,0,0,0,43.1,16Z"/><path class="a" d="M63.6,16A2.562,2.562,0,0,0,61,18.5v.2a2.588,2.588,0,0,0,2.5,2.7h.1a2.582,2.582,0,0,0,2.6-2.6v-.2A2.715,2.715,0,0,0,63.6,16Z"/><path class="a" d="M0,5.3V30.5H75.5V5.3ZM15.8,23.6H7V11H9.7V21.1h6l.1,2.5Zm5.7-2a4.192,4.192,0,0,0,2.8-1L26,21.9a6.811,6.811,0,0,1-4.5,1.9c-3.2,0-5.4-2.1-5.4-5a4.951,4.951,0,0,1,5-5h.1A4.483,4.483,0,0,1,25,15.4a6.6,6.6,0,0,1,1.2,2.7l-6.8,2.8a2.582,2.582,0,0,0,2.1.7Zm15.3,2H34.1V18.1a2.21,2.21,0,0,0-4.4,0h0v5.5H27V13.9h2.7v1.4a3.934,3.934,0,0,1,3.2-1.5,3.7,3.7,0,0,1,3.9,3.5v6.3Zm6.3.1a5,5,0,1,1,5.2-5,5.083,5.083,0,0,1-4.9,5.1.367.367,0,0,1-.3-.1Zm8.8-.1-4-9.7h3l2.4,6.6,2.4-6.6h3l-4,9.7Zm11.7.1a5,5,0,1,1,5.2-5,5.083,5.083,0,0,1-4.9,5.1.367.367,0,0,1-.3-.1Z"/><path class="a" d="M21.2,15.9a2.61,2.61,0,0,0-2,1,2.75,2.75,0,0,0-.5,2.3l4.7-1.9A2.506,2.506,0,0,0,21.2,15.9Z"/><rect class="a" width="0.5" height="35.8" transform="translate(88.4)"/><path class="a" d="M142.6,19.8l-.7,2h-.1a12.192,12.192,0,0,0-.7-2l-3.8-9.5h-3.7V25.4H136V14c0-.4-.1-.7-.1-1h.1a6.833,6.833,0,0,0,.4,1.3l4.5,11h1.7l4.5-11.1c.1-.3.2-.8.3-1.2h.1c-.1,1.1-.1,2.1-.1,2.7v9.6H150v-15h-3.6Zm9.9-5.2H155V25.4h-2.5Zm1.3-4.6a2.1,2.1,0,0,0-1.1.4,1.366,1.366,0,0,0-.4,1.1,1.528,1.528,0,0,0,.4,1,1.366,1.366,0,0,0,1.1.4,2.1,2.1,0,0,0,1.1-.4,1.284,1.284,0,0,0,.4-1,2.1,2.1,0,0,0-.4-1.1,1.82,1.82,0,0,0-1.1-.4m10.3,4.5a7.844,7.844,0,0,0-1.4-.2,6.207,6.207,0,0,0-3.1.8,4.513,4.513,0,0,0-2,2.1,6.172,6.172,0,0,0-.7,3.1,5.3,5.3,0,0,0,.7,2.8,4.36,4.36,0,0,0,1.9,1.9,6.1,6.1,0,0,0,2.8.7,7.448,7.448,0,0,0,3.1-.7h0V22.7l-.1.1a3.38,3.38,0,0,1-1.2.6,2.744,2.744,0,0,1-1.2.2,3.244,3.244,0,0,1-2.4-.9,3.573,3.573,0,0,1-.9-2.6,3.573,3.573,0,0,1,.9-2.6,3.312,3.312,0,0,1,2.4-1,4.31,4.31,0,0,1,2.4.8l.1.1V14.9h0c-.4-.1-.8-.3-1.3-.4m8.4-.1a2.715,2.715,0,0,0-1.7.6,5.6,5.6,0,0,0-1,1.5h0V14.6h-2.5V25.4h2.5V19.9a4.143,4.143,0,0,1,.6-2.3,1.922,1.922,0,0,1,1.6-.9c.2,0,.5.1.8.1a1.628,1.628,0,0,1,.6.3l.1.1V14.7h-.1a1.222,1.222,0,0,0-.9-.3m6.9,0a5.359,5.359,0,0,0-4.2,1.6,5.925,5.925,0,0,0-1.5,4.3,5.162,5.162,0,0,0,5.5,5.5,5.279,5.279,0,0,0,4.1-1.6,6,6,0,0,0,1.5-4.2,5.984,5.984,0,0,0-1.4-4.1,5.512,5.512,0,0,0-4-1.5m2,8.3a2.583,2.583,0,0,1-2.1.9,2.792,2.792,0,0,1-2.2-.9,4.033,4.033,0,0,1-.8-2.6,4.338,4.338,0,0,1,.8-2.7,2.792,2.792,0,0,1,2.2-.9,2.583,2.583,0,0,1,2.1.9,4.033,4.033,0,0,1,.8,2.6,4.806,4.806,0,0,1-.8,2.7m9-3.6a4.683,4.683,0,0,1-1.5-.8,1.136,1.136,0,0,1-.3-.8.909.909,0,0,1,.4-.8,1.8,1.8,0,0,1,1.1-.3,5.852,5.852,0,0,1,1.3.2,3.7,3.7,0,0,1,1.1.5l.1.1V14.8h-.1a10.378,10.378,0,0,0-1.2-.3,6.151,6.151,0,0,0-1.3-.1,4.86,4.86,0,0,0-3,.9,2.851,2.851,0,0,0-1.2,2.4,2.5,2.5,0,0,0,.3,1.3,3.511,3.511,0,0,0,.8,1,7.579,7.579,0,0,0,1.6.9c.6.3,1,.4,1.3.6a3.171,3.171,0,0,1,.6.5,1.421,1.421,0,0,1,.2.6c0,.7-.5,1.1-1.7,1.1a3.926,3.926,0,0,1-1.4-.3,6.109,6.109,0,0,1-1.4-.7l-.1-.1v2.5h.1a4.672,4.672,0,0,0,1.4.4,7.719,7.719,0,0,0,1.5.2,4.771,4.771,0,0,0,3.1-.9,2.908,2.908,0,0,0,1.2-2.5,3.077,3.077,0,0,0-.6-1.9,11.743,11.743,0,0,0-2.3-1.3m9.6-4.7a5.359,5.359,0,0,0-4.2,1.6,6.089,6.089,0,0,0-1.5,4.3,5.162,5.162,0,0,0,5.5,5.5,5.279,5.279,0,0,0,4.1-1.6,6,6,0,0,0,1.5-4.2,5.984,5.984,0,0,0-1.4-4.1,5.354,5.354,0,0,0-4-1.5m2,8.3a2.583,2.583,0,0,1-2.1.9,2.792,2.792,0,0,1-2.2-.9,4.033,4.033,0,0,1-.8-2.6,4.338,4.338,0,0,1,.8-2.7,2.792,2.792,0,0,1,2.2-.9,2.583,2.583,0,0,1,2.1.9,4.033,4.033,0,0,1,.8,2.6,4.138,4.138,0,0,1-.8,2.7"/><path class="a" d="M219,16.7V14.6h-2.6V11.4h-.1l-2.4.7h-.1v2.4H210V13.1a2.588,2.588,0,0,1,.4-1.4,1.656,1.656,0,0,1,1.2-.5,2.279,2.279,0,0,1,1.1.3l.1.1V9.4h-.1a5.212,5.212,0,0,0-1.4-.2,4.228,4.228,0,0,0-2,.5,3.159,3.159,0,0,0-1.4,1.4,4.552,4.552,0,0,0-.5,2v1.5h-1.8v2.1h1.8v8.8H210V16.8h3.8v5.6c0,2.3,1.1,3.4,3.2,3.4.4,0,.7-.1,1.1-.1a3.385,3.385,0,0,0,.8-.3h0V23.3l-.1.1c-.2.1-.3.2-.5.2a1.087,1.087,0,0,1-.5.1,1.246,1.246,0,0,1-1.1-.4,2.331,2.331,0,0,1-.4-1.4V16.8l2.7-.1Z"/><path class="a" d="M101,5.3h12v12H101Z"/><path class="a" d="M114.2,5.3h12v12h-12Z"/><path class="a" d="M101,18.5h12v12H101Z"/><path class="a" d="M114.2,18.5h12v12h-12Z"/></svg>