<svg xmlns="http://www.w3.org/2000/svg" width="163.612" height="64.18" viewBox="0 0 163.612 64.18"><defs><style>.a{fill:#fff;}.b{fill:#da000c;}</style></defs><path class="a" d="M19.7,2.464V8.625H13.348V51.466H6.417V8.625H0V2.464Z" transform="translate(0 -1.601)"/><path class="a" d="M66.809,14.388h.265a4.929,4.929,0,0,1,4.7-2.837c4.3,0,4.982,2.19,4.982,6.33V51.357H70.48V19.218c0-1.34-.311-2.326-1.74-2.326-1.588,0-1.867,1.219-1.867,2.262v32.2H60.6V2.208h6.214v12.18Z" transform="translate(-39.377 -1.435)"/><path class="b" d="M120.7,4.078A4.078,4.078,0,1,1,116.621,0a4.079,4.079,0,0,1,4.08,4.078Z" transform="translate(-73.135)"/><path class="a" d="M115.28,69.655V30.312h6.241V69.655Z" transform="translate(-74.913 -19.698)"/><path class="a" d="M371.926,4.078A4.079,4.079,0,1,1,367.846,0a4.079,4.079,0,0,1,4.08,4.078Z" transform="translate(-236.39)"/><path class="a" d="M366.505,69.793V30.45h6.241V69.793Z" transform="translate(-238.168 -19.787)"/><path class="a" d="M141.316,29.58h6.224V31.9h.258a5.184,5.184,0,0,1,4.708-2.775c5.037,0,4.982,2.807,4.982,6.946V68.915H151.2V37.033c0-1.255-.214-2.57-1.66-2.57-1.932,0-2.017,1.467-2.017,2.57V68.915h-6.207V29.58Z" transform="translate(-91.832 -18.923)"/><g transform="translate(68.614 0.906)"><path class="a" d="M195.948,51.686V2.586h6.269V30.48h.6l3.6-18.122H212.7l-3.772,17.787L212.9,51.686h-6.423l-3.664-20.773h-.6V51.686Z" transform="translate(-195.948 -2.586)"/></g><path class="a" d="M436.743,53.293v9.391c0,4.074-3.177,6.629-8.217,6.629s-8.217-2.555-8.217-6.629V35.477c0-4.074,3.176-6.629,8.217-6.629s8.217,2.555,8.217,6.629v14.5h-9.806V62.546c0,1.8.622,1.933,1.588,1.933s1.588-.138,1.588-1.933V53.293Zm-6.629-17.678c0-1.8-.622-1.934-1.588-1.934s-1.588.138-1.588,1.934v9.736h3.177Z" transform="translate(-273.131 -18.746)"/><path class="a" d="M392.852,51.565V2.4h6.629V51.565Z" transform="translate(-255.289 -1.559)"/><path class="a" d="M252.418,2.512h9.967l5.571,49.126h-6.844l-1.375-13.316h-5.055L253.1,51.638h-6.6ZM259.049,31.9l-1.513-20.423h-.379L255.369,31.9Z" transform="translate(-160.182 -1.632)"/><path class="a" d="M327.293,76.427c0,4.1-3.2,6.678-8.278,6.678s-8.277-2.574-8.277-6.678V71.489h6.538V75.8c0,2.087.765,2.434,1.6,2.434s1.6-.348,1.6-2.434V66.967h-.139a4.666,4.666,0,0,1-4.591,2.713c-3.269,0-5.008-2.017-5.008-5.286V34.408c0-3.269,1.739-5.286,5.008-5.286,1.809,0,3.478,1.252,4.869,2.852V29.609h6.678Zm-9.877-14.885c0,2.087.766,2.435,1.6,2.435s1.6-.348,1.6-2.435V37.26c0-2.087-.765-2.435-1.6-2.435s-1.6.348-1.6,2.435Z" transform="translate(-201.929 -18.925)"/></svg>